<svg viewBox="0 0 33.27 34.43" xmlns="http://www.w3.org/2000/svg" xmlns:xlink="http://www.w3.org/1999/xlink" overflow="hidden"><defs></defs><g id="Layer_2"><g id="Layer_2-2"><path d="M1 21.5C-0.0599727 14.7142 3.25801 7.99418 9.29 4.71L10.71 4.9C10.819 5.11448 11.0304 5.25798 11.27 5.28 11 5.37 0.61 8.86 1 21.5Z" fill="#325BA3"/><path d="M12.26 5.51 13.26 5.7C13.26 5.7 1.89 7.68 1 21.46 0.66 8.63 12.26 5.51 12.26 5.51Z" fill="#325BA3"/><path d="M26.89 4.66C26.04 4.66 20.19 4.57 20.19 4.57 19.4323 4.57958 18.6746 4.54954 17.92 4.48 16.962 4.91438 15.9546 5.23005 14.92 5.42 13.6297 5.48598 12.3411 5.26039 11.15 4.76L11.15 4.48 7.74 3.82 7.74 3.72 11.74 4.29 11.64 3.06 13.15 3.44 3.68 0.61 11.41 1.74 11.41 1.08 11.89 1.08 12.45 1.93 16.13 2.49 22.92 0C23.3587-0.0485473 23.8013-0.0485473 24.24 0L24.47 0.06C24.6864 0.107256 24.8763 0.236214 25 0.42 25.12 0.61 25.12 0.88 24.86 1.27 24.3 2.1 19.91 3.76 19.77 3.81L21.56 3.44C21.56 3.44 26.32 4.57 26.89 4.66Z" fill="#325BA3"/><path d="M10.85 3.91 11.32 3.72 11.32 3.91 10.85 3.91Z" fill="none"/><path d="M23.58 0.42 24.06 0.42 24.06 0.14C24.06 0.14 23.68 0.14 23.58 0.42Z" fill="#FFFFFF"/><path d="M25 0.42 24.2 0.42 24.2 0.14 24.52 0.14C24.7066 0.177645 24.8754 0.276121 25 0.42Z" fill="#FFFFFF"/><ellipse cx="22.63" cy="4.55" rx="0.86" ry="0.57" fill="#325BA3" transform="matrix(0.974409 -0.224781 0.224781 0.974409 -0.44 5.2)"/><ellipse cx="25.08" cy="4.96" rx="0.85" ry="0.57" fill="#325BA3" transform="matrix(0.984686 -0.174336 0.174336 0.984686 -0.48 4.45)"/><ellipse cx="25.72" cy="4.88" rx="0.21" ry="0.31" fill="#FFFFFF"/><ellipse cx="23.3" cy="4.43" rx="0.19" ry="0.33" fill="#FFFFFF" transform="matrix(0.997859 -0.0654031 0.0654031 0.997859 -0.24 1.53)"/><ellipse cx="9.17" cy="2.34" rx="0.91" ry="0.49" fill="#325BA3" transform="matrix(0.990171 -0.139864 0.139864 0.990171 -0.24 1.31)"/><ellipse cx="9.89" cy="2.23" rx="0.2" ry="0.28" fill="#FFFFFF" transform="matrix(0.993532 -0.11355 0.11355 0.993532 -0.19 1.14)"/><ellipse cx="15.71" cy="3.01" rx="0.33" ry="0.42" fill="#FFFFFF"/><path d="M2.64 25.51C2.25135 24.5934 1.937 23.647 1.7 22.68 1.51 20.89 1.23 13.68 6.98 9.68 6.98 9.68 8.21 10.16 8.68 12.68 8.9703 11.4066 8.48934 10.081 7.45 9.29L7.74 9C7.74 9 8.68 9.95 8.87 10.23 9.15212 10.6854 9.31385 11.205 9.34 11.74 9.23947 12.4261 9.17604 13.1171 9.15 13.81L10.38 16.64 11.04 16.55 10.09 15C10.09 15 12.09 16.6 12.45 16.79 9.30815 18.051 6.63759 20.2602 4.81 23.11 3.58 25.66 3.81 27.26 4.06 28.2L3.11 26.79C3.40053 24.4144 4.45312 22.197 6.11 20.47 4.39401 21.6871 3.16463 23.4727 2.64 25.51Z" fill="#93D8F3"/><path d="M3.21 16.17C3.21 16.17 4.81 17.4 4.81 18.44L9.81 15.51 9.62 15.32C8.70231 15.7085 7.75621 16.0261 6.79 16.27 5.60148 16.4692 4.38555 16.4352 3.21 16.17Z" fill="#FFFEFF"/><path d="M2.83 15.42C2.83515 15.5943 2.90255 15.7611 3.02 15.89 3.97991 16.237 5.01246 16.3334 6.02 16.17 7.23776 15.9313 8.4348 15.5969 9.6 15.17L9.53 15C8.37847 15.3675 7.19744 15.6351 6 15.8 4.92871 15.8792 3.85223 15.7501 2.83 15.42Z" fill="none"/><path d="M3.21 14 3.11 15.32 6.6 15.61 9.43 14.85 9.43 13.91 7.92 13.63 3.21 14Z" fill="#FFFFFF"/><path d="M9.43 14.47 6.7 15.04 3.15 14.76" stroke="#93D8F3" stroke-width="0.05" stroke-miterlimit="10" fill="none"/><path d="M9.43 13.91 6.7 14.47 3.21 14" stroke="#93D8F3" stroke-width="0.05" stroke-miterlimit="10" fill="none"/><line x1="6.7" y1="14.48" x2="6.6" y2="15.61" stroke="#93D8F3" stroke-width="0.05" stroke-miterlimit="10" fill="none"/><line x1="7.31" y1="14.33" x2="7.22" y2="15.47" stroke="#93D8F3" stroke-width="0.05" stroke-miterlimit="10" fill="none"/><line x1="7.73" y1="14.26" x2="7.66" y2="15.32" stroke="#93D8F3" stroke-width="0.05" stroke-miterlimit="10" fill="none"/><line x1="8.21" y1="14.16" x2="8.15" y2="15.19" stroke="#93D8F3" stroke-width="0.05" stroke-miterlimit="10" fill="none"/><line x1="8.67" y1="14.07" x2="8.64" y2="15.04" stroke="#93D8F3" stroke-width="0.05" stroke-miterlimit="10" fill="none"/><line x1="9.07" y1="13.98" x2="9.06" y2="14.95" stroke="#93D8F3" stroke-width="0.05" stroke-miterlimit="10" fill="none"/><path d="M4.29 17.73C3.82 18.3 3.44 18.73 3.63 19.14" fill="none"/><path d="M3.91 19.62C3.91 19.62 4.48 20.56 6.08 19.52" fill="none"/><path d="M4.48 18.3C4.39 18.39 3.73 19.62 5.24 18.86 6.02774 18.4818 6.78355 18.0403 7.5 17.54" fill="none"/><line x1="8.25" y1="16.98" x2="9.39" y2="16.31" fill="none"/><path d="M6.46 19.14C7.51166 18.3758 8.61422 17.6842 9.76 17.07" fill="none"/><path d="M14.72 7.87 15.72 5.87 17.72 5.21C20.9198 5.83639 23.9275 7.20661 26.5 9.21 24.6006 7.52454 22.43 6.17217 20.08 5.21 20.4215 5.21762 20.7595 5.28182 21.08 5.4 21.08 5.4 27.08 7.1 29.67 12.66 30.6021 14.7073 31.1122 16.9213 31.17 19.17 29.6654 18.7365 28.1144 18.4848 26.55 18.42 24.29 17.95 18.63 16.34 15.99 16.42 15.14 15.66 14.99 15.42 14.99 15.42L16.22 14.42 16.78 14.7 17.16 14.32 19 14.29 19.28 15.51 19.94 15.61 19.66 14.38 22 13.15 21.62 12.21 22.62 12.21 22.15 11.65 22.9 10.89 22.36 10 22.26 9.25 20.66 10.19 20.28 10.85 19.34 10.66 19.34 9.85 20.85 8.34 20.38 7 17.92 6.91 16.51 8.34Z" fill="#93D8F3"/><ellipse cx="22.36" cy="15.94" rx="1.32" ry="1.27" stroke="#FFFFFF" stroke-width="0.05" stroke-miterlimit="10" fill="none"/><ellipse cx="26.32" cy="15.56" rx="1.32" ry="1.27" stroke="#FFFFFF" stroke-width="0.05" stroke-miterlimit="10" fill="none"/><path d="M22.36 15.8C22.36 15.8 23 15.51 23 14" stroke="#FFFFFF" stroke-width="0.05" stroke-miterlimit="10" fill="none"/><path d="M23.06 13.58C22.8553 13.4641 22.6047 13.4641 22.4 13.58 22.03 13.77 22.5 14.14 22.69 14.14L24.57 14.14" stroke="#FFFFFF" stroke-width="0.05" stroke-miterlimit="10" fill="none"/><line x1="23.02" y1="14.14" x2="24.29" y2="15.65" stroke="#FFFFFF" stroke-width="0.05" stroke-miterlimit="10" fill="none"/><path d="M24.86 12.67 24.86 14.14 25.99 15.28 26.18 15.65 24.86 15.84" stroke="#FFFFFF" stroke-width="0.05" stroke-miterlimit="10" fill="none"/><circle cx="24.67" cy="16.03" r="0.57" fill="#FFFFFF"/><circle cx="26.28" cy="15.57" r="0.38" fill="#FFFFFF"/><path d="M23.07 13.9C22.9398 13.9249 22.8141 13.8395 22.7892 13.7093 22.7748 13.6338 22.7974 13.556 22.85 13.5 22.94 13.39 23.06 13.25 23.16 13.11 23.2855 12.8803 23.3797 12.6347 23.44 12.38L23.44 11.79C23.44 11.67 23.44 11.62 23.32 11.66 23.2742 11.689 23.2158 11.689 23.17 11.66 22.9446 11.5219 22.8693 11.2298 23 11 23.15 10.71 23.29 10.7 23.48 10.75 23.5886 10.7827 23.6595 10.887 23.65 11 23.65 11.18 23.65 11.38 23.85 11.38 24.326 11.2111 24.8567 11.3639 25.17 11.76 25.74 12.42 25.92 12.89 25.83 13.17 25.74 13.45 24.42 13.36 24.51 13.55 24.6 13.74 25.64 14.78 25.51 14.96 25.3126 15.1766 25.0417 15.3121 24.75 15.34 24.56 15.34 24.09 15.25 24.28 15.15 24.47 15.05 24.85 14.96 24.85 14.87 24.85 14.78 23.72 13.45 23.72 13.36 23.72 13.27 24.56 12.89 24.66 12.79 24.76 12.69 24.85 12.51 24.47 12.32 24.09 12.13 23.34 13.83 23.24 13.83Z" fill="#FFFFFF"/><path d="M27.12 10.18C26.9701 10.259 26.8127 10.3227 26.65 10.37 26.56 10.37 26.74 10.37 26.74 10.47 26.74 10.57 26.74 10.84 26.84 10.94 26.94 11.04 27.12 11.03 27.12 11.13 27.12 11.23 26.93 11.22 26.84 11.41 26.75 11.6 26.84 11.98 26.74 12.07 26.5126 12.288 26.2609 12.4792 25.99 12.64 25.89 12.64 25.99 13.2 26.37 12.82 26.75 12.44 26.93 12.16 27.03 12.26 27.13 12.36 26.93 12.64 26.93 12.82 26.93 13 26.74 13.48 26.84 13.67L27.12 13.67C27.0386 13.7868 26.9746 13.9148 26.93 14.05 26.8365 14.3841 26.8722 14.7411 27.03 15.05 27.31 15.43 27.97 15.8 28.03 16.05 28.09 16.3 27.94 16.52 28.03 16.52 28.12 16.52 28.32 16.42 28.41 16.14 28.5 15.86 27.85 15.39 27.75 14.82 27.6722 14.3154 27.7063 13.7999 27.85 13.31 27.8964 13.2098 28.0153 13.1662 28.1155 13.2126 28.1205 13.2148 28.1253 13.2173 28.13 13.22 28.13 13.22 28.32 13.22 28.32 12.93 28.32 12.64 28.51 11.23 27.47 10.93 27.37 10.93 27.37 10.93 27.37 10.84 27.37 10.75 27.5 10.09 27.12 10.18Z" fill="#FFFFFF"/><path d="M27.22 15.18C27.22 15.18 27.22 16.18 27.03 16.31 26.84 16.44 26.5 16.66 27.41 16.53 27.5141 16.515 27.5911 16.4252 27.59 16.32 27.59 15.87 27.64 15.32 27.64 15.32" fill="#FFFFFF"/><path d="M4.58 25.28C4.58 25.28 3.25 28.67 6.65 29.28 8.18 29.58 11.75 28.83 15.23 27.91 19.51 26.79 23.63 25.42 23.63 25.42 24.2811 24.8468 25.1348 24.5587 26 24.62 27.13 24.24 30.27 23.24 30.81 22.92 31.6816 22.458 32.3825 21.7291 32.81 20.84 33.3151 19.5964 33.0365 18.1717 32.1 17.21 32.5228 17.7675 32.8134 18.4138 32.95 19.1 33.1391 19.8649 32.9067 20.6726 32.34 21.22 31.63 21.93 31.02 22.07 29.42 22.45 27.82 22.83 19.1 24.33 17.88 24.52 16.66 24.71 7.41 26.13 4.58 25.28Z" fill="#32569E"/><path d="M6 24 6 24C5.88973 24.2771 6.02496 24.5911 6.30206 24.7014 6.33373 24.714 6.36652 24.7236 6.4 24.73 22.26 24.21 30.8 21.73 30.8 21.73L23.16 22.73 14.57 23.58C14.57 23.58 9.27 24.17 6.57 23.58 6.30317 23.5628 6.06265 23.7401 6 24Z" fill="#32569E"/><path d="M10.19 18.44 9.62 18.91C9.62 18.91 9.91 19.57 16.32 20.14 22.73 20.71 28.96 21.14 29.9 21.08 30.84 21.02 31.9 20.8 32.17 19.76 32.48 18.8039 32.2634 17.7551 31.6 17 31.8925 17.8019 31.9344 18.6738 31.72 19.5 31.6008 19.795 31.3181 19.9914 31 20 29.2665 19.761 27.5568 19.3729 25.89 18.84 25.89 18.84 23.15 18.18 21.55 17.9 19.95 17.62 15.42 16.2 11.36 17.9 12.3 18.18 18.36 19.5 19.94 19.69 21.52 19.88 27.21 20.64 27.21 20.64L24.1 20.45C24.1 20.45 17.96 20.07 16.1 19.69 14.24 19.31 11.13 19.1 10.19 18.44Z" fill="#32569E"/><path d="M16.32 19.95 15.66 23.81 16.04 23.81 16.7 19.95 16.32 19.95Z" fill="#32569E"/><path d="M22.73 20.51 22.64 22.96 22.83 22.87 22.92 20.51 22.73 20.51Z" fill="#32569E"/><rect x="26.98" y="20.8" width="0.19" height="1.6" fill="#32569E"/><path d="M4.72 28.91 5.57 29.91 6.13 29.72C5.61075 29.5466 5.13136 29.2712 4.72 28.91Z" fill="#93D8F3"/><path d="M7.08 31.17 7.17 31.55 12 29.66C11.577 29.8104 11.1283 29.875 10.68 29.85 10.77 29.95 10.59 30.04 10.59 30.04Z" fill="#93D8F3"/><path d="M17.17 29.47 9.43 32.78C9.43 32.78 11.98 34.78 16.98 34.38 21.98 33.98 24.24 32.12 24.24 32.12L22.83 32.12C22.6894 32.2625 22.5315 32.3868 22.36 32.49 22.17 32.59 20.94 32.96 20.56 32.49 20.1629 32.0388 19.9028 31.4838 19.81 30.89 19.7922 30.385 19.8224 29.8794 19.9 29.38 19.9525 29.0415 20.0825 28.7198 20.28 28.44L20.66 28.06 19.72 28.34C19.4639 29.5218 19.3034 30.7224 19.24 31.93 19.082 32.2002 18.8942 32.4518 18.68 32.68L17.68 30.61 11.83 32.49 17.36 30Z" fill="#93D8F3"/><path d="M0 32.12 2.17 32.12 9.81 29.66C9.28239 29.7556 8.74541 29.7891 8.21 29.76 7.83 30 0 32.12 0 32.12Z" fill="#32569E"/><path d="M6.89 32.3 9.24 32.3 21.24 27.21C21.24 27.21 21.24 26.93 21.42 26.83 20.38 27.12 6.89 32.3 6.89 32.3Z" fill="#32569E"/><path d="M22.07 26.46 22.55 26.55 22.73 26.27 22.07 26.46Z" fill="#32569E"/><path d="M27.26 24.57C27.26 24.57 36.37 22.64 32.17 17.21" fill="none"/><path d="M22.4 31.6C22.4 31.6 22.12 32 22 32L21 32.1C21 32.1 20.62 31.53 20.72 31.34 20.6158 31.293 20.5183 31.2325 20.43 31.16L20.43 30.87C20.43 30.87 20.62 31.16 20.72 31.16L21.09 31.16C21.19 31.16 21.19 30.87 21.09 30.78 20.9283 30.62 20.7384 30.4912 20.53 30.4L20.53 29.24C20.53 29.24 21 29.62 21.19 29.52 21.4503 29.3197 21.5302 28.962 21.38 28.67 21.2965 28.5369 21.1993 28.4129 21.09 28.3L21.94 27.73 21.94 27.63C21.8398 27.5836 21.7962 27.4647 21.8426 27.3645 21.8449 27.3595 21.8473 27.3547 21.85 27.35 21.94 27.16 22.23 27.16 22.51 27.16 22.79 27.16 24.02 25.94 24.11 25.84 25.1977 25.3176 26.3937 25.0605 27.6 25.09 28.6848 24.9887 29.7788 25.1182 30.81 25.47 31.1487 25.7785 31.463 26.1129 31.75 26.47 32.0932 26.7029 32.3581 27.034 32.51 27.42 32.6501 28.1029 32.6501 28.8071 32.51 29.49L32.41 29.49C32.4567 29.146 32.3937 28.7961 32.23 28.49 32.13 28.31 32.04 28.12 31.75 28.12 31.0153 28.3006 30.2909 28.5209 29.58 28.78 29.9 28.8299 30.2274 28.7955 30.53 28.68 31.19 28.49 31.66 28.4 31.94 28.68 32.2441 29.2821 32.2099 29.9995 31.85 30.57 31.5378 30.6364 31.2191 30.6666 30.9 30.66 30.9 30.66 30.81 30.38 30.72 30.38 30.63 30.38 29.11 30.95 29.11 30.95 29.1087 30.5641 29.0719 30.1791 29 29.8 28.9 29.52 28.53 28.48 28 29.52 28.28 29.62 28.57 29.52 28.66 29.9 28.75 30.28 29.04 31.41 28.38 32.07L27.22 32.07C27.0979 31.9026 27.022 31.706 27 31.5 26.43 31.5 22.94 31.6 22.47 31.5Z" fill="#32569E"/><path d="M22.37 27.68C22.3327 27.6902 22.2942 27.6682 22.2841 27.6309 22.2753 27.5988 22.2903 27.565 22.32 27.55 22.77 27.14 24.09 25.97 24.24 25.89 25.7411 25.6891 27.2574 25.6255 28.77 25.7 28.87 25.89 28.39 27.7 28.11 27.7Z" fill="#FFFFFF"/><path d="M21 28.34C21 28.34 21.19 28.06 21.28 28.53 21.37 29 21.47 29.53 21.19 29.53 20.91 29.53 20.52 29.06 20.52 29.06Z" fill="#FFFFFF"/><path d="M21.6 28.63C21.979 29.2023 22.6138 29.5533 23.3 29.57 24.2288 29.4696 25.1272 29.1804 25.94 28.72" fill="none"/><path d="M25.8 29.33C25.8 29.2 25.99 28.77 26.74 28.48 27.49 28.19 27.88 28.2 27.97 28.48 28.06 28.76 27.78 29.24 27.31 29.43 26.84 29.62 25.71 30 25.8 29.33Z" fill="#FFFFFF"/><path d="M20.33 30.37C20.5868 30.3169 20.8497 30.4284 20.99 30.65 21.18 31.03 21.18 31.22 20.8 31.13L20.42 30.94C20.23 30.84 20.33 30.37 20.33 30.37Z" fill="#FFFFFF"/><path d="M21.37 30.61C21.369 30.5493 21.4174 30.4992 21.4781 30.4982 21.4855 30.4981 21.4928 30.4987 21.5 30.5 21.7023 30.5523 21.9115 30.5725 22.12 30.56L24.87 30.56C24.9914 30.5554 25.0936 30.65 25.0982 30.7715 25.0991 30.7946 25.0963 30.8177 25.09 30.84 25.0373 31.0385 24.8728 31.1874 24.67 31.22 23.7906 31.265 22.9094 31.265 22.03 31.22 21.6896 31.2075 21.4093 30.9484 21.37 30.61Z" fill="#FFFFFF"/><path d="M26.74 31C26.74 31 26.27 31.19 26.18 31 26.09 30.81 26.08 30.53 26.56 30.43 27.04 30.33 27.31 30.15 27.22 30.43 27.1394 30.6747 26.9675 30.8789 26.74 31Z" fill="#FFFFFF"/><path d="M28.35 30C28.35 30 28.06 29.91 28.06 31 28.06 31.66 28.35 31.75 28.44 31.66" fill="none"/><path d="M28.25 30.18C28.25 30.18 28.54 30.18 28.54 30.65 28.54 31.12 28.54 31.41 28.35 31.5" fill="none"/><path d="M31.74 28.86C31.74 28.86 31.46 28.77 31.46 29.8 31.46 30.47 31.74 30.56 31.84 30.46" fill="none"/><path d="M31.65 29.05C31.65 29.05 31.93 29.05 31.93 29.52 31.93 29.99 31.93 30.28 31.74 30.37" fill="none"/><path d="M29 27.7 28.83 27.65C28.7847 27.6372 28.7525 27.597 28.75 27.55 28.75 27.18 28.75 25.65 29.75 25.55 29.798 25.5467 29.8426 25.5751 29.86 25.62 30.1162 26.1271 30.2949 26.6698 30.39 27.23 30.3955 27.285 30.3555 27.334 30.3005 27.3395 30.297 27.3398 30.2935 27.34 30.29 27.34L30.21 27.34C30.1585 27.3403 30.1152 27.3013 30.11 27.25 30.11 27.17 30.05 27.06 29.93 27.06 29.81 27.06 29.17 27.06 29.17 27.44L29.17 27.58C29.187 27.6383 29.1536 27.6994 29.0952 27.7164 29.0627 27.7259 29.0275 27.7199 29 27.7Z" fill="#FFFFFF"/><path d="M30.56 27.21C30.4136 26.6796 30.2264 26.1614 30 25.66 30 25.66 30 25.61 30 25.6 30.3252 25.4964 30.6801 25.6134 30.88 25.89 31.26 26.36 31.64 26.89 31.54 26.89 31.44 26.89 30.56 27.3 30.56 27.21Z" fill="#FFFFFF"/><path d="M30.68 28.1 30.33 28.2C30.26 28.2 30.19 28.2 30.19 28.13L30.19 28C30.1897 27.954 30.2242 27.9151 30.27 27.91L30.64 27.8C30.6807 27.7828 30.7276 27.8018 30.7449 27.8425 30.7472 27.8481 30.749 27.854 30.75 27.86L30.75 28C30.7563 28.0465 30.7258 28.09 30.68 28.1Z" fill="#FFFFFF"/><path d="M32 27.65 31.65 27.73C31.58 27.73 31.51 27.73 31.51 27.67L31.51 27.56C31.51 27.56 31.51 27.5 31.59 27.49L32 27.4C32 27.4 32.11 27.4 32.11 27.45L32.11 27.59C32.11 27.59 32 27.64 32 27.65Z" fill="#FFFFFF"/></g></g></svg>